# xmcd
#
# Track frame offsets:
#	150
#	17387
#	29091
#	48235
#	71718
#	90457
#	109996
#	128176
#	142358
#	157327
#	171116
#	184244
#	196175
#	210341
#	226524
#	242827
#	257261
#	274108
#	297952
#	310473
#	325083
#
# Disc length: 4518 seconds
# Revision: 0
# Processed by: cddbd v1.5.2PL0 Copyright (c) Steve Scherf et al.
# Submitted via: dBpowerAMP V12.0
#
DISCID=3111a415
DTITLE=Various Artist - 35 Years Of Stony Plain [CD1 of 2)
DYEAR=2011
DGENRE=Jazz
TTITLE0=Maria Muldaur - The Diplomat
TTITLE1=Jeff Healey - The Wildcat
TTITLE2=Harry Manx and Kevin Breit - Looking For A Brand New World
TTITLE3=Corb Lund - Horse Soldier, Horse Soldier
TTITLE4=Steve Earle - Ben McCulloch
TTITLE5=Ian Tyson - Blaino's Song
TTITLE6=Tim Hus - Country Music Lament
TTITLE7=Valdy and Gary Fjellgaard - Still In The Running
TTITLE8=Ray Bonneville - Canary Yellow Car
TTITLE9=Asleep At The Wheel - That's Your Red Wagon
TTITLE10=Sunny and Her Joy Boys - Strictly From Dixie
TTITLE11=Amos Garrett - Get Way Back
TTITLE12=David Wilcox - Bend A Little
TTITLE13=New Guitar Summit - Shivers
TTITLE14=Spirit Of The West - Our Station
TTITLE15=Emmylou Harris - Wheels
TTITLE16=Blue Rodeo - Four Strong Winds
TTITLE17=Rodney Crowell - Closer To Heaven
TTITLE18=Bob Carpenter - Dreaming
TTITLE19=Bob Carpenter - Magdelana
TTITLE20=Bob Carpenter - Chameleon Man
EXTD=
EXTT0=
EXTT1=
EXTT2=
EXTT3=
EXTT4=
EXTT5=
EXTT6=
EXTT7=
EXTT8=
EXTT9=
EXTT10=
EXTT11=
EXTT12=
EXTT13=
EXTT14=
EXTT15=
EXTT16=
EXTT17=
EXTT18=
EXTT19=
EXTT20=
PLAYORDER=
